<svg width="23" height="23" viewBox="0 0 23 23" fill="none" xmlns="http://www.w3.org/2000/svg">
<path d="M1.66571 19.0176H20.9157" stroke="#808191" stroke-width="1.5" stroke-linecap="round" stroke-linejoin="round"/>
<path d="M12.6657 19.0176V3.89258C12.6657 3.71024 12.5933 3.53537 12.4643 3.40644C12.3354 3.27751 12.1605 3.20508 11.9782 3.20508H3.72821C3.54587 3.20508 3.37101 3.27751 3.24207 3.40644C3.11314 3.53537 3.04071 3.71024 3.04071 3.89258V19.0176" stroke="#808191" stroke-width="1.5" stroke-linecap="round" stroke-linejoin="round"/>
<path d="M19.5407 19.0176V9.39258C19.5407 9.21024 19.4683 9.03537 19.3393 8.90644C19.2104 8.77751 19.0355 8.70508 18.8532 8.70508H12.6657" stroke="#808191" stroke-width="1.5" stroke-linecap="round" stroke-linejoin="round"/>
<path d="M5.79071 6.64258H8.54071" stroke="#808191" stroke-width="1.5" stroke-linecap="round" stroke-linejoin="round"/>
<path d="M7.16571 12.1426H9.91571" stroke="#808191" stroke-width="1.5" stroke-linecap="round" stroke-linejoin="round"/>
<path d="M5.79071 15.5801H8.54071" stroke="#808191" stroke-width="1.5" stroke-linecap="round" stroke-linejoin="round"/>
<path d="M15.4157 15.5801H16.7907" stroke="#808191" stroke-width="1.5" stroke-linecap="round" stroke-linejoin="round"/>
<path d="M15.4157 12.1426H16.7907" stroke="#808191" stroke-width="1.5" stroke-linecap="round" stroke-linejoin="round"/>
</svg>
