<svg width="30" height="42" viewBox="0 0 30 42" fill="none" xmlns="http://www.w3.org/2000/svg">
<circle cx="14.7" cy="14.7" r="14.7" fill="#538234"/>
<path d="M14.6992 42C14.6992 42 12.5768 36.2171 10.4992 32.9C8.43694 29.6072 4.19922 25.2 4.19922 25.2L25.1992 25.2C25.1992 25.2 20.9615 29.6072 18.8992 32.9C16.8217 36.2171 14.6992 42 14.6992 42Z" fill="#538234"/>
<path d="M8.375 11V20.5C8.375 20.9714 8.375 21.2071 8.52145 21.3536C8.66789 21.5 8.9036 21.5 9.375 21.5H19.625C20.0964 21.5 20.3321 21.5 20.4786 21.3536C20.625 21.2071 20.625 20.9714 20.625 20.5V11M8.375 11H20.625M8.375 11H7.025C6.83644 11 6.74216 11 6.68358 10.9414C6.625 10.8828 6.625 10.7886 6.625 10.6V8.5C6.625 8.0286 6.625 7.79289 6.77145 7.64645C6.91789 7.5 7.1536 7.5 7.625 7.5H21.375C21.8464 7.5 22.0821 7.5 22.2286 7.64645C22.375 7.79289 22.375 8.0286 22.375 8.5V10.6C22.375 10.7886 22.375 10.8828 22.3164 10.9414C22.2578 11 22.1636 11 21.975 11H20.625" stroke="white"/>
<path d="M12.75 18H16.25" stroke="white" stroke-linecap="round"/>
</svg>
