<svg width="16" height="16" viewBox="0 0 16 16" fill="none" xmlns="http://www.w3.org/2000/svg">
<path d="M8.37833 11.0899L8.15347 10.6433L8.15347 10.6433L8.37833 11.0899ZM7.62297 11.0899L7.84784 10.6433L7.84784 10.6433L7.62297 11.0899ZM12.1673 5.63625C12.1673 6.9645 11.4718 8.06737 10.5894 8.93225C9.7081 9.79599 8.68687 10.3747 8.15347 10.6433L8.6032 11.5365C9.18053 11.2458 10.3038 10.6123 11.2893 9.64643C12.2737 8.68164 13.1673 7.33734 13.1673 5.63625H12.1673ZM8.00065 1.75586C10.3321 1.75586 12.1673 3.52252 12.1673 5.63625H13.1673C13.1673 2.91154 10.8238 0.755859 8.00065 0.755859V1.75586ZM3.83398 5.63625C3.83398 3.52252 5.66918 1.75586 8.00065 1.75586V0.755859C5.17747 0.755859 2.83398 2.91154 2.83398 5.63625H3.83398ZM7.84784 10.6433C7.31444 10.3747 6.29321 9.79599 5.41193 8.93225C4.5295 8.06737 3.83398 6.9645 3.83398 5.63625H2.83398C2.83398 7.33734 3.7276 8.68164 4.71197 9.64643C5.69751 10.6123 6.82077 11.2458 7.39811 11.5365L7.84784 10.6433ZM8.15347 10.6433C8.05485 10.693 7.94645 10.693 7.84784 10.6433L7.39811 11.5365C7.77962 11.7286 8.22168 11.7286 8.6032 11.5365L8.15347 10.6433ZM9.50065 5.63625C9.50065 6.36758 8.85937 7.01357 8.00065 7.01357V8.01357C9.35107 8.01357 10.5007 6.97855 10.5007 5.63625H9.50065ZM8.00065 4.25894C8.85937 4.25894 9.50065 4.90493 9.50065 5.63625H10.5007C10.5007 4.29395 9.35107 3.25894 8.00065 3.25894V4.25894ZM6.50065 5.63625C6.50065 4.90493 7.14193 4.25894 8.00065 4.25894V3.25894C6.65023 3.25894 5.50065 4.29395 5.50065 5.63625H6.50065ZM8.00065 7.01357C7.14193 7.01357 6.50065 6.36758 6.50065 5.63625H5.50065C5.50065 6.97855 6.65023 8.01357 8.00065 8.01357V7.01357Z" fill="white"/>
<path d="M13.1962 10.9543C13.7228 11.2397 14 11.5634 14 11.8929C14 12.2225 13.7228 12.5462 13.1962 12.8316C12.6695 13.117 11.9121 13.354 11 13.5187C10.0879 13.6835 9.05322 13.7702 8 13.7702C6.94678 13.7702 5.91212 13.6835 5 13.5187C4.08789 13.354 3.33046 13.117 2.80385 12.8316C2.27724 12.5462 2 12.2225 2 11.8929C2 11.5634 2.27724 11.2397 2.80385 10.9543" stroke="white" stroke-linecap="round"/>
</svg>
