<svg width="16" height="17" viewBox="0 0 16 17" fill="none" xmlns="http://www.w3.org/2000/svg">
<path d="M2.66602 6.75811C2.66602 6.1809 2.66602 5.89229 2.74273 5.62334C2.78466 5.47635 2.84331 5.33465 2.91752 5.20102C3.05329 4.95651 3.25724 4.75231 3.66514 4.3439V4.3439C4.07374 3.9348 4.27803 3.73026 4.52282 3.59407C4.65661 3.51964 4.7985 3.46082 4.9457 3.41876C5.21504 3.3418 5.50414 3.3418 6.08233 3.3418H9.91637C10.4946 3.3418 10.7837 3.3418 11.053 3.41876C11.2002 3.46082 11.3421 3.51964 11.4759 3.59407C11.7207 3.73026 11.925 3.9348 12.3336 4.3439V4.3439C12.7415 4.75231 12.9454 4.95651 13.0812 5.20102C13.1554 5.33465 13.214 5.47635 13.256 5.62334C13.3327 5.89229 13.3327 6.1809 13.3327 6.75811V9.35412C13.3327 11.2397 13.3327 12.1825 12.7469 12.7683C12.1611 13.3541 11.2183 13.3541 9.33268 13.3541H6.66602C4.7804 13.3541 3.83759 13.3541 3.2518 12.7683C2.66602 12.1825 2.66602 11.2397 2.66602 9.35412V6.75811Z" stroke="white"/>
<path d="M2.66602 6.67969H13.3327" stroke="white" stroke-linecap="round"/>
<path d="M9.88846 6.67969L6.11068 6.67969C5.95354 6.67969 5.87498 6.67969 5.82616 6.72856C5.77734 6.77744 5.77734 6.8561 5.77734 7.01343L5.77734 9.12714C5.77734 9.63765 5.77734 9.8929 5.84328 10.0301C5.99048 10.3363 6.344 10.483 6.66437 10.3706C6.80789 10.3203 6.98816 10.1398 7.34869 9.77882C7.51568 9.61163 7.59917 9.52803 7.68794 9.48104C7.8829 9.37782 8.11623 9.37782 8.31119 9.48104C8.39996 9.52803 8.48346 9.61163 8.65044 9.77882C9.01098 10.1398 9.19124 10.3203 9.33476 10.3706C9.65513 10.483 10.0087 10.3363 10.1558 10.0301C10.2218 9.8929 10.2218 9.63765 10.2218 9.12714V7.01343C10.2218 6.8561 10.2218 6.77744 10.173 6.72856C10.1242 6.67969 10.0456 6.67969 9.88846 6.67969Z" fill="white"/>
</svg>
