<svg width="30" height="42" viewBox="0 0 30 42" fill="none" xmlns="http://www.w3.org/2000/svg">
<circle cx="15.2996" cy="14.7" r="14.7" fill="#538234"/>
<path d="M9.375 14.1648C9.375 12.9768 9.375 12.3828 9.61515 11.8606C9.85531 11.3385 10.3063 10.9519 11.2083 10.1788L12.0833 9.42875C13.7137 8.03126 14.529 7.33252 15.5 7.33252C16.4711 7.33252 17.2863 8.03126 18.9167 9.42875L19.7917 10.1788C20.6937 10.9519 21.1447 11.3385 21.3848 11.8606C21.625 12.3828 21.625 12.9768 21.625 14.1648V17.8752C21.625 19.5251 21.625 20.3501 21.1124 20.8626C20.5999 21.3752 19.7749 21.3752 18.125 21.3752H12.875C11.2251 21.3752 10.4001 21.3752 9.88756 20.8626C9.375 20.3501 9.375 19.5251 9.375 17.8752V14.1648Z" stroke="white"/>
<path d="M17.6875 21.375V16.125H13.3125V21.375" stroke="white" stroke-linecap="round" stroke-linejoin="round"/>
<path d="M15.2988 42C15.2988 42 13.1764 36.2171 11.0988 32.9C9.03655 29.6072 4.79883 25.2 4.79883 25.2L25.7988 25.2C25.7988 25.2 21.5611 29.6072 19.4988 32.9C17.4213 36.2171 15.2988 42 15.2988 42Z" fill="#538234"/>
</svg>
