<svg width="0" height="0" class="hidden">
  <symbol fill="none" xmlns="http://www.w3.org/2000/svg" viewBox="0 0 24 24" id="delete">
    <path d="M10 15L10 12" stroke="transparent" stroke-width="1.5" stroke-linecap="round"></path>
    <path d="M14 15L14 12" stroke="transparent" stroke-width="1.5" stroke-linecap="round"></path>
    <path d="M3 7H21V7C20.0681 7 19.6022 7 19.2346 7.15224C18.7446 7.35523 18.3552 7.74458 18.1522 8.23463C18 8.60218 18 9.06812 18 10V16C18 17.8856 18 18.8284 17.4142 19.4142C16.8284 20 15.8856 20 14 20H10C8.11438 20 7.17157 20 6.58579 19.4142C6 18.8284 6 17.8856 6 16V10C6 9.06812 6 8.60218 5.84776 8.23463C5.64477 7.74458 5.25542 7.35523 4.76537 7.15224C4.39782 7 3.93188 7 3 7V7Z" stroke="#11142D" stroke-width="1.5" stroke-linecap="round"></path>
    <path d="M10.0681 3.37059C10.1821 3.26427 10.4332 3.17033 10.7825 3.10332C11.1318 3.03632 11.5597 3 12 3C12.4403 3 12.8682 3.03632 13.2175 3.10332C13.5668 3.17033 13.8179 3.26427 13.9319 3.37059" stroke="#11142D" stroke-width="1.5" stroke-linecap="round"></path>
  </symbol>
  <symbol fill="none" xmlns="http://www.w3.org/2000/svg" viewBox="0 0 24 24" id="edit">
    <mask id="path-1-outside-1_315_66651" maskUnits="userSpaceOnUse" x="3" y="4" width="17" height="17" fill="black">
      <rect fill="white" x="3" y="4" width="17" height="17"></rect>
      <path d="M13.5858 7.41421L6.39171 14.6083C6.19706 14.8029 6.09974 14.9003 6.03276 15.0186C5.96579 15.1368 5.93241 15.2704 5.86564 15.5374L5.20211 18.1915C5.11186 18.5526 5.06673 18.7331 5.16682 18.8332C5.2669 18.9333 5.44742 18.8881 5.80844 18.7979L5.80845 18.7979L8.46257 18.1344C8.72963 18.0676 8.86316 18.0342 8.98145 17.9672C9.09974 17.9003 9.19706 17.8029 9.39171 17.6083L16.5858 10.4142L16.5858 10.4142C17.2525 9.74755 17.5858 9.41421 17.5858 9C17.5858 8.58579 17.2525 8.25245 16.5858 7.58579L16.4142 7.41421C15.7475 6.74755 15.4142 6.41421 15 6.41421C14.5858 6.41421 14.2525 6.74755 13.5858 7.41421Z"></path>
    </mask>
    <path d="M6.39171 14.6083L7.45237 15.6689H7.45237L6.39171 14.6083ZM13.5858 7.41421L12.5251 6.35355L12.5251 6.35355L13.5858 7.41421ZM16.4142 7.41421L15.3536 8.47487L15.3536 8.47487L16.4142 7.41421ZM16.5858 7.58579L17.6464 6.52513L17.6464 6.52512L16.5858 7.58579ZM16.5858 10.4142L17.6464 11.4749L16.5858 10.4142ZM9.39171 17.6083L8.33105 16.5476L8.33105 16.5476L9.39171 17.6083ZM5.86564 15.5374L7.32086 15.9012V15.9012L5.86564 15.5374ZM5.20211 18.1915L3.7469 17.8277V17.8277L5.20211 18.1915ZM5.80845 18.7979L5.44465 17.3427L5.3793 17.359L5.31567 17.3811L5.80845 18.7979ZM8.46257 18.1344L8.09877 16.6791L8.09877 16.6791L8.46257 18.1344ZM5.16682 18.8332L6.22748 17.7725L6.22747 17.7725L5.16682 18.8332ZM5.80844 18.7979L6.17224 20.2531L6.2376 20.2368L6.30122 20.2146L5.80844 18.7979ZM8.98145 17.9672L8.2424 16.6619L8.2424 16.6619L8.98145 17.9672ZM16.5858 10.4142L17.6465 11.4749V11.4749L16.5858 10.4142ZM6.03276 15.0186L4.72746 14.2795L4.72746 14.2795L6.03276 15.0186ZM7.45237 15.6689L14.6464 8.47487L12.5251 6.35355L5.33105 13.5476L7.45237 15.6689ZM15.3536 8.47487L15.5251 8.64645L17.6464 6.52512L17.4749 6.35355L15.3536 8.47487ZM15.5251 9.35355L8.33105 16.5476L10.4524 18.6689L17.6464 11.4749L15.5251 9.35355ZM4.41043 15.1736L3.7469 17.8277L6.65733 18.5554L7.32086 15.9012L4.41043 15.1736ZM6.17226 20.2531L8.82638 19.5896L8.09877 16.6791L5.44465 17.3427L6.17226 20.2531ZM3.7469 17.8277C3.714 17.9593 3.6437 18.2241 3.62021 18.4642C3.59491 18.7228 3.57801 19.3657 4.10616 19.8938L6.22747 17.7725C6.42048 17.9655 6.53082 18.1949 6.57919 18.405C6.62109 18.587 6.60925 18.7226 6.60596 18.7563C6.60227 18.794 6.59821 18.8029 6.60886 18.7548C6.61898 18.7092 6.6333 18.6515 6.65733 18.5554L3.7469 17.8277ZM5.31567 17.3811L5.31566 17.3811L6.30122 20.2146L6.30123 20.2146L5.31567 17.3811ZM5.44465 17.3427C5.34853 17.3667 5.2908 17.381 5.24519 17.3911C5.19714 17.4018 5.20601 17.3977 5.24374 17.394C5.27744 17.3907 5.41297 17.3789 5.59501 17.4208C5.80513 17.4692 6.03447 17.5795 6.22748 17.7725L4.10615 19.8938C4.63429 20.422 5.27716 20.4051 5.53581 20.3798C5.77593 20.3563 6.04065 20.286 6.17224 20.2531L5.44465 17.3427ZM8.33105 16.5476C8.28079 16.5979 8.24426 16.6344 8.21273 16.6653C8.18146 16.6959 8.16438 16.7118 8.15517 16.7201C8.14674 16.7277 8.15246 16.722 8.16851 16.7099C8.18625 16.6967 8.21142 16.6795 8.2424 16.6619L9.7205 19.2725C10.0569 19.0821 10.314 18.8073 10.4524 18.6689L8.33105 16.5476ZM8.82637 19.5896C9.01618 19.5421 9.38407 19.463 9.7205 19.2725L8.2424 16.6619C8.27338 16.6444 8.30106 16.6316 8.32158 16.6233C8.34016 16.6157 8.34799 16.6137 8.33715 16.6171C8.32532 16.6207 8.30286 16.6271 8.26052 16.6382C8.21783 16.6494 8.16773 16.6619 8.09877 16.6791L8.82637 19.5896ZM15.5251 8.64645C15.6957 8.81706 15.8269 8.94839 15.9362 9.06332C16.046 9.17881 16.1078 9.25097 16.1433 9.29743C16.1781 9.34313 16.1624 9.33181 16.1388 9.27537C16.1103 9.20698 16.0858 9.10988 16.0858 9H19.0858C19.0858 8.33306 18.7968 7.82956 18.5283 7.47769C18.2863 7.16043 17.9498 6.82847 17.6464 6.52513L15.5251 8.64645ZM17.6464 11.4749L17.6465 11.4749L15.5251 9.35355L15.5251 9.35355L17.6464 11.4749ZM17.6465 11.4749C17.9498 11.1715 18.2863 10.8396 18.5283 10.5223C18.7968 10.1704 19.0858 9.66694 19.0858 9H16.0858C16.0858 8.89012 16.1103 8.79302 16.1388 8.72463C16.1624 8.66819 16.1781 8.65687 16.1433 8.70256C16.1078 8.74903 16.046 8.82119 15.9362 8.93667C15.8269 9.05161 15.6957 9.18294 15.5251 9.35355L17.6465 11.4749ZM14.6464 8.47487C14.8171 8.30426 14.9484 8.17307 15.0633 8.06379C15.1788 7.954 15.251 7.8922 15.2974 7.85675C15.3431 7.82188 15.3318 7.83762 15.2754 7.86116C15.207 7.88968 15.1099 7.91421 15 7.91421V4.91421C14.3331 4.91421 13.8296 5.20321 13.4777 5.47168C13.1604 5.71374 12.8285 6.0502 12.5251 6.35355L14.6464 8.47487ZM17.4749 6.35355C17.1715 6.0502 16.8396 5.71374 16.5223 5.47168C16.1704 5.20321 15.6669 4.91421 15 4.91421V7.91421C14.8901 7.91421 14.793 7.88968 14.7246 7.86116C14.6682 7.83762 14.6569 7.82188 14.7026 7.85675C14.749 7.8922 14.8212 7.954 14.9367 8.06379C15.0516 8.17307 15.1829 8.30426 15.3536 8.47487L17.4749 6.35355ZM5.33105 13.5476C5.19271 13.686 4.91795 13.9431 4.72746 14.2795L7.33806 15.7576C7.32052 15.7886 7.30335 15.8138 7.29005 15.8315C7.27802 15.8475 7.27232 15.8533 7.27991 15.8448C7.28818 15.8356 7.30412 15.8185 7.33473 15.7873C7.36561 15.7557 7.40211 15.7192 7.45237 15.6689L5.33105 13.5476ZM7.32086 15.9012C7.3381 15.8323 7.35064 15.7822 7.36179 15.7395C7.37285 15.6971 7.37931 15.6747 7.38294 15.6629C7.38627 15.652 7.3843 15.6598 7.37672 15.6784C7.36835 15.6989 7.35561 15.7266 7.33806 15.7576L4.72746 14.2795C4.53698 14.6159 4.45788 14.9838 4.41043 15.1736L7.32086 15.9012Z" fill="#11142D" mask="url(#path-1-outside-1_315_66651)"></path>
    <path d="M12.5 7.5L16.5 11.5" stroke="#11142D" stroke-width="1.5"></path>
  </symbol>
  <symbol fill="none" xmlns="http://www.w3.org/2000/svg" viewBox="0 0 24 24" id="eye">
    <circle cx="12" cy="12" r="3.25" stroke="#11142D" stroke-width="1.5"></circle>
    <path d="M20.188 10.9343C20.5762 11.4056 20.7703 11.6412 20.7703 12C20.7703 12.3588 20.5762 12.5944 20.188 13.0657C18.7679 14.7899 15.6357 18 12 18C8.36427 18 5.23206 14.7899 3.81197 13.0657C3.42381 12.5944 3.22973 12.3588 3.22973 12C3.22973 11.6412 3.42381 11.4056 3.81197 10.9343C5.23206 9.21014 8.36427 6 12 6C15.6357 6 18.7679 9.21014 20.188 10.9343Z" stroke="#11142D" stroke-width="1.5"></path>
  </symbol>
  <symbol fill="none" xmlns="http://www.w3.org/2000/svg" viewBox="0 0 24 24" id="overview">
    <path d="M7.24414 14.7815L10.2373 10.8914L13.6515 13.5733L16.5805 9.79297" stroke="#808191" stroke-width="1.5" stroke-linecap="round" stroke-linejoin="round"></path>
    <circle cx="19.9945" cy="4.20052" r="1.9222" stroke="#808191" stroke-width="1.5" stroke-linecap="round" stroke-linejoin="round"></circle>
    <path d="M14.9238 3.12012H7.65606C4.64462 3.12012 2.77734 5.25284 2.77734 8.26428V16.3467C2.77734 19.3581 4.60801 21.4817 7.65606 21.4817H16.2602C19.2716 21.4817 21.1389 19.3581 21.1389 16.3467V9.30776" stroke="#808191" stroke-width="1.5" stroke-linecap="round" stroke-linejoin="round"></path>
  </symbol>
  <symbol fill="none" xmlns="http://www.w3.org/2000/svg" viewBox="0 0 24 24" id="Search">
    <path fill-rule="evenodd" clip-rule="evenodd" d="M11.6115 2C6.30323 2 2 6.20819 2 11.3993C2 16.5903 6.30323 20.7985 11.6115 20.7985C13.8819 20.7985 15.9684 20.0287 17.613 18.7415L20.7371 21.7886L20.8202 21.8586C21.1102 22.0685 21.5214 22.0446 21.7839 21.7873C22.0726 21.5043 22.072 21.0459 21.7825 20.7636L18.6952 17.7523C20.2649 16.0794 21.2231 13.8487 21.2231 11.3993C21.2231 6.20819 16.9198 2 11.6115 2ZM11.6115 3.44774C16.1022 3.44774 19.7426 7.00776 19.7426 11.3993C19.7426 15.7908 16.1022 19.3508 11.6115 19.3508C7.12086 19.3508 3.48044 15.7908 3.48044 11.3993C3.48044 7.00776 7.12086 3.44774 11.6115 3.44774Z" fill="#11142D"></path>
  </symbol>
  <symbol fill="none" xmlns="http://www.w3.org/2000/svg" viewBox="0 0 24 24" id="store">
    <path d="M14.5 21V16C14.5 15.4477 14.0523 15 13.5 15H10.5C9.94772 15 9.5 15.4477 9.5 16V21" stroke="#11142D" stroke-width="1.5" stroke-linecap="round" stroke-linejoin="round"></path>
    <path d="M5 11V17C5 18.8856 5 19.8284 5.58579 20.4142C6.17157 21 7.11438 21 9 21H15C16.8856 21 17.8284 21 18.4142 20.4142C19 19.8284 19 18.8856 19 17V11" stroke="#11142D" stroke-width="1.5"></path>
    <path d="M4.62127 4.51493C4.80316 3.78737 4.8941 3.42359 5.16536 3.21179C5.43663 3 5.8116 3 6.56155 3H17.4384C18.1884 3 18.5634 3 18.8346 3.21179C19.1059 3.42359 19.1968 3.78737 19.3787 4.51493L20.5823 9.32938C20.6792 9.71675 20.7276 9.91044 20.7169 10.0678C20.6892 10.4757 20.416 10.8257 20.0269 10.9515C19.8769 11 19.6726 11 19.2641 11V11C18.7309 11 18.4644 11 18.2405 10.9478C17.6133 10.8017 17.0948 10.3625 16.8475 9.76781C16.7593 9.55555 16.7164 9.29856 16.6308 8.78457V8.78457C16.6068 8.64076 16.5948 8.56886 16.5812 8.54994C16.5413 8.49439 16.4587 8.49439 16.4188 8.54994C16.4052 8.56886 16.3932 8.64076 16.3692 8.78457L16.2877 9.27381C16.2791 9.32568 16.2747 9.35161 16.2704 9.37433C16.0939 10.3005 15.2946 10.9777 14.352 10.9995C14.3289 11 14.3026 11 14.25 11V11C14.1974 11 14.1711 11 14.148 10.9995C13.2054 10.9777 12.4061 10.3005 12.2296 9.37433C12.2253 9.35161 12.2209 9.32568 12.2123 9.27381L12.1308 8.78457C12.1068 8.64076 12.0948 8.56886 12.0812 8.54994C12.0413 8.49439 11.9587 8.49439 11.9188 8.54994C11.9052 8.56886 11.8932 8.64076 11.8692 8.78457L11.7877 9.27381C11.7791 9.32568 11.7747 9.35161 11.7704 9.37433C11.5939 10.3005 10.7946 10.9777 9.85199 10.9995C9.82887 11 9.80258 11 9.75 11V11C9.69742 11 9.67113 11 9.64801 10.9995C8.70541 10.9777 7.90606 10.3005 7.7296 9.37433C7.72527 9.35161 7.72095 9.32568 7.7123 9.27381L7.63076 8.78457C7.60679 8.64076 7.59481 8.56886 7.58122 8.54994C7.54132 8.49439 7.45868 8.49439 7.41878 8.54994C7.40519 8.56886 7.39321 8.64076 7.36924 8.78457V8.78457C7.28357 9.29856 7.24074 9.55555 7.15249 9.76781C6.90524 10.3625 6.38675 10.8017 5.75951 10.9478C5.53563 11 5.26905 11 4.73591 11V11C4.32737 11 4.12309 11 3.97306 10.9515C3.58403 10.8257 3.31078 10.4757 3.28307 10.0678C3.27239 9.91044 3.32081 9.71675 3.41765 9.32938L4.62127 4.51493Z" stroke="#11142D" stroke-width="1.5"></path>
  </symbol>
</svg>