<svg width="28" height="20" viewBox="0 0 28 20" fill="none" xmlns="http://www.w3.org/2000/svg">
<path d="M4.46773 14.7798C4.22224 15.1134 4.29369 15.5829 4.62732 15.8284C4.96095 16.0739 5.43041 16.0024 5.6759 15.6688L9.34023 10.6889C10.0949 11.2932 11.215 12.4391 11.5096 14.2063C11.5698 14.5679 11.8827 14.833 12.2493 14.833H15.7493C16.1118 14.833 16.4224 14.5738 16.4873 14.2172C16.6926 13.0879 17.6905 11.3292 19.6119 10.2437L22.2713 15.0306C22.4724 15.3927 22.929 15.5231 23.2911 15.322C23.6532 15.1208 23.7837 14.6642 23.5825 14.3021L20.9953 9.64509C21.7292 9.4144 22.5577 9.27866 23.4849 9.27866C23.8991 9.27866 24.2349 8.94287 24.2349 8.52866C24.2349 6.48471 23.0125 2.08964 18.0522 1.09757C17.7791 1.04295 17.4982 1.14417 17.3227 1.36045C17.1473 1.57673 17.1061 1.87245 17.2158 2.12845C17.3349 2.40643 17.4696 2.75715 17.5971 3.14171L16.0317 2.29012C15.6678 2.09219 15.2124 2.2267 15.0144 2.59056C14.8165 2.95442 14.951 3.40984 15.3149 3.60778L18.0614 5.10185C18.094 5.38838 18.1009 5.64307 18.08 5.85538C18.0775 5.88016 18.0748 5.90374 18.0717 5.92617C17.3534 5.72533 16.4361 5.60648 15.4763 5.73472C14.3011 5.89173 13.0596 6.42219 12.0766 7.60798C11.2132 7.25551 10.0404 6.83778 8.81782 6.51951C7.33809 6.13432 5.66119 5.86042 4.36676 6.11931C4.35509 6.12164 4.34348 6.12425 4.33194 6.12714C3.94052 6.22499 3.32887 6.39965 2.75054 6.6104C2.4616 6.71569 2.1688 6.83438 1.91098 6.96195C1.66905 7.08166 1.39473 7.23929 1.19366 7.44036C1.05301 7.58101 0.97399 7.77177 0.97399 7.97069V8.83301C0.97399 9.06396 1.08039 9.28203 1.26243 9.42416C1.44447 9.56629 1.68184 9.61663 1.90589 9.56062C1.95992 9.54711 2.0191 9.53217 2.08273 9.51611C2.46839 9.41876 3.01793 9.28004 3.58067 9.16722C4.26819 9.02938 4.85205 8.95751 5.16031 8.99437C6.36362 9.13824 6.82435 9.20039 7.20514 9.3384C7.46637 9.43307 7.69461 9.56444 8.10693 9.83401L4.46773 14.7798ZM20.3859 13.3529C20.6315 13.0193 20.5603 12.5498 20.2267 12.3042C19.8932 12.0586 19.4237 12.1298 19.1781 12.4633C18.5783 13.2777 18.2601 14.2651 18.2714 15.2764C18.2827 16.2877 18.623 17.2678 19.2408 18.0685C19.8586 18.8692 20.7203 19.4469 21.6957 19.7144C22.671 19.9818 23.7069 19.9244 24.6467 19.5508C25.5865 19.1772 26.3791 18.5078 26.9047 17.6437C27.4302 16.7796 27.6601 15.7679 27.5596 14.7616C27.4591 13.7553 27.0337 12.809 26.3476 12.066C25.6615 11.3229 24.7522 10.8235 23.7571 10.6431C23.3495 10.5693 22.9592 10.8398 22.8853 11.2474C22.8115 11.6549 23.082 12.0452 23.4896 12.1191C24.1641 12.2413 24.7805 12.5799 25.2455 13.0835C25.7105 13.5872 25.9989 14.2286 26.0671 14.9107C26.1352 15.5928 25.9793 16.2785 25.6231 16.8642C25.2669 17.4499 24.7297 17.9037 24.0926 18.1569C23.4556 18.4101 22.7535 18.449 22.0923 18.2678C21.4312 18.0865 20.8471 17.6949 20.4284 17.1521C20.0096 16.6094 19.779 15.9451 19.7713 15.2596C19.7636 14.5742 19.9793 13.9048 20.3859 13.3529ZM5.5755 12.109C5.9844 12.1751 6.36947 11.8972 6.43559 11.4883C6.5017 11.0794 6.22381 10.6943 5.8149 10.6282C4.81651 10.4668 3.7927 10.6348 2.89831 11.107C2.00392 11.5791 1.28759 12.3297 0.857656 13.2451C0.427719 14.1605 0.307554 15.191 0.515336 16.1808C0.723117 17.1706 1.24754 18.0658 2.00931 18.7311C2.77107 19.3963 3.72874 19.7955 4.73749 19.8681C5.74624 19.9407 6.7512 19.6829 7.60041 19.1336C8.44961 18.5843 9.09686 17.7735 9.44429 16.8237C9.79171 15.8738 9.8204 14.8367 9.52603 13.8692C9.40546 13.4729 8.98648 13.2494 8.5902 13.3699C8.19392 13.4905 7.97041 13.9095 8.09097 14.3058C8.29051 14.9616 8.27106 15.6646 8.03557 16.3084C7.80008 16.9522 7.36136 17.5018 6.78575 17.8741C6.21014 18.2464 5.52895 18.4212 4.8452 18.372C4.16145 18.3227 3.51232 18.0522 2.99598 17.6013C2.47964 17.1503 2.12418 16.5436 1.98334 15.8727C1.8425 15.2018 1.92395 14.5032 2.21537 13.8828C2.50679 13.2623 2.99233 12.7535 3.59857 12.4335C4.2048 12.1135 4.89876 11.9996 5.5755 12.109Z" stroke="#808191" stroke-width="1.5" stroke-linecap="round" stroke-linejoin="round"/>
</svg>
