<svg width="24" height="24" viewBox="0 0 24 24" fill="none" xmlns="http://www.w3.org/2000/svg">
<path fill-rule="evenodd" clip-rule="evenodd" d="M15.9202 12.7988C15.9725 12.5407 16 12.2736 16 12C16 9.79086 14.2091 8 12 8C11.7264 8 11.4593 8.02746 11.2012 8.07977L12.7295 9.60812C13.5236 9.85 14.15 10.4764 14.3919 11.2705L15.9202 12.7988ZM9.76246 10.8837C9.5945 11.2197 9.5 11.5988 9.5 12C9.5 13.3807 10.6193 14.5 12 14.5C12.4012 14.5 12.7803 14.4055 13.1163 14.2375L14.212 15.3332C13.5784 15.7545 12.8179 16 12 16C9.79086 16 8 14.2091 8 12C8 11.1821 8.24547 10.4216 8.66676 9.78799L9.76246 10.8837Z" fill="#11142D"/>
<path fill-rule="evenodd" clip-rule="evenodd" d="M18.2006 16.14C19.2969 15.2301 20.1786 14.2578 20.7677 13.5425C20.7807 13.5268 20.7938 13.511 20.8069 13.4951C20.8167 13.4833 20.8265 13.4715 20.8363 13.4597C21.1563 13.0747 21.521 12.6357 21.521 12C21.521 11.3643 21.1563 10.9253 20.8363 10.5403C20.8132 10.5124 20.7902 10.4848 20.7677 10.4575C20.0353 9.56824 18.8506 8.28159 17.3636 7.21178C15.8826 6.14624 14.0377 5.25 12.0007 5.25C10.6577 5.25 9.39807 5.63965 8.27122 6.21056L9.39744 7.33678C10.2313 6.97165 11.1067 6.75 12.0007 6.75C13.5996 6.75 15.1386 7.45883 16.4876 8.4294C17.8307 9.3957 18.9222 10.5762 19.6099 11.4111C19.8177 11.6634 19.92 11.7908 19.9814 11.8936C20.0213 11.9605 20.0212 11.9795 20.021 11.9971L20.021 12L20.021 12.0029C20.0212 12.0205 20.0213 12.0395 19.9814 12.1064C19.92 12.2092 19.8177 12.3366 19.6099 12.5889C19.0363 13.2852 18.1819 14.2219 17.1349 15.0743L18.2006 16.14ZM8.02203 8.08269C7.84991 8.19371 7.68044 8.30956 7.51387 8.4294C6.17077 9.3957 5.07931 10.5762 4.39163 11.4111C4.18379 11.6634 4.08145 11.7908 4.02013 11.8936C3.98021 11.9605 3.98034 11.9795 3.98046 11.9971L3.98047 12L3.98046 12.0029C3.98034 12.0205 3.98021 12.0395 4.02013 12.1064C4.08144 12.2092 4.18379 12.3366 4.39163 12.5889C5.0793 13.4238 6.17077 14.6043 7.51387 15.5706C8.86289 16.5412 10.4019 17.25 12.0007 17.25C13.3736 17.25 14.7023 16.7274 15.9046 15.9652L16.9883 17.049C15.5758 17.996 13.869 18.75 12.0007 18.75C9.96383 18.75 8.11889 17.8538 6.63785 16.7882C5.15089 15.7184 3.96621 14.4318 3.2338 13.5425C3.21126 13.5152 3.18833 13.4876 3.16516 13.4597C2.8452 13.0747 2.48047 12.6357 2.48047 12C2.48047 11.3643 2.8452 10.9253 3.16516 10.5403L3.16524 10.5402C3.18838 10.5124 3.21128 10.4848 3.2338 10.4575C3.96621 9.56824 5.15089 8.28158 6.63785 7.21178C6.7369 7.14052 6.83758 7.07002 6.93983 7.00049L8.02203 8.08269Z" fill="#11142D"/>
<path d="M5 2L21 18" stroke="#11142D" stroke-width="1.5"/>
</svg>
